<svg id="Layer_1" data-name="Layer 1" xmlns="http://www.w3.org/2000/svg" viewBox="0 0 122.88 75.44"><title>6g-mobile-technology</title><path d="M21.7,68.5a4.13,4.13,0,0,1,1,3,4.22,4.22,0,0,1-1.35,2.85.43.43,0,0,1-.1.09,4.1,4.1,0,0,1-3,1A4.21,4.21,0,0,1,15.38,74L15.32,74A65.89,65.89,0,0,1,3.74,56.06,45.51,45.51,0,0,1,0,37.48,45.83,45.83,0,0,1,4.36,19,66.15,66.15,0,0,1,16.56,1.4l0,0h0l.06-.05A4.25,4.25,0,0,1,19.5.09a4.05,4.05,0,0,1,3,1.15h0l.06.06A4.23,4.23,0,0,1,23.8,4.18a4.08,4.08,0,0,1-1.14,3A58.69,58.69,0,0,0,12.06,22.3a37.17,37.17,0,0,0-3.7,15.3h0a37.72,37.72,0,0,0,3.19,15.48,57.73,57.73,0,0,0,9.81,15.13,1.58,1.58,0,0,1,.34.29ZM49.08,50.61a9.87,9.87,0,0,1-3.51-.56,5.33,5.33,0,0,1-2.49-1.93,9.9,9.9,0,0,1-1.49-3.76,31.77,31.77,0,0,1-.49-6.06,26.64,26.64,0,0,1,.67-6.53,10,10,0,0,1,2-4.13,7.07,7.07,0,0,1,3.14-2.15,12.86,12.86,0,0,1,4.19-.63c1.2,0,2.37.05,3.5.16a17.42,17.42,0,0,1,3,.52V30.8H51.84A3.85,3.85,0,0,0,48.62,32a5.21,5.21,0,0,0-.9,3.27A6.81,6.81,0,0,1,49,34.77a8.29,8.29,0,0,1,1.48-.2c.57,0,1.27,0,2.12,0a8.3,8.3,0,0,1,4.07.81,4.24,4.24,0,0,1,1.93,2.22,9,9,0,0,1,.51,3.1v3.69a7.16,7.16,0,0,1-.8,3.6A4.87,4.87,0,0,1,56,50a8.52,8.52,0,0,1-3.44.64Zm1.37-5.93H51a1.55,1.55,0,0,0,.88-.21,1.13,1.13,0,0,0,.45-.59,2.92,2.92,0,0,0,.13-.94V42a3.33,3.33,0,0,0-.15-1.14,1,1,0,0,0-.55-.56,3,3,0,0,0-1.14-.17H47.72a15.48,15.48,0,0,0,.13,2.25,3.77,3.77,0,0,0,.46,1.4,1.7,1.7,0,0,0,.86.71,3.47,3.47,0,0,0,1.28.21Zm19,5.9a6.21,6.21,0,0,1-6.14-3.77,14.62,14.62,0,0,1-1.14-4.08,35.05,35.05,0,0,1-.32-4.94,33.1,33.1,0,0,1,.39-5.32,11.42,11.42,0,0,1,1.43-4.1,6.82,6.82,0,0,1,3-2.62,11.78,11.78,0,0,1,5-.92,34.15,34.15,0,0,1,3.46.15,21.43,21.43,0,0,1,2.72.45c.84.19,1.71.41,2.62.66v5.15c-.5-.09-1.13-.17-1.91-.24S77,30.88,76,30.83s-2-.07-3-.07a5.67,5.67,0,0,0-2.94.6,3,3,0,0,0-1.26,2.13,23.63,23.63,0,0,0-.31,4.3,28.53,28.53,0,0,0,.17,3.43,5.9,5.9,0,0,0,.57,2,2.22,2.22,0,0,0,1,1,3.64,3.64,0,0,0,1.47.27,18.87,18.87,0,0,0,2.25-.12c.66-.08,1.16-.15,1.5-.22V40.89H71.92V35.64c.5-.07,1.09-.13,1.79-.17s1.41-.09,2.15-.12,1.41-.05,2-.05c.82,0,1.54,0,2.16,0s1.2,0,1.72,0v15h-5l-.89-1.67a13.43,13.43,0,0,1-2.56,1.19,11.14,11.14,0,0,1-3.89.65Zm-33.65,4a4.21,4.21,0,0,1,.82,2.94,4.12,4.12,0,0,1-1.51,2.79l-.08.06-.07.06a4.23,4.23,0,0,1-2.94.82,4.11,4.11,0,0,1-2.79-1.51l-.06-.08A40,40,0,0,1,22.85,49a31.72,31.72,0,0,1-2.2-11.36,30.76,30.76,0,0,1,2.11-11.26,39.59,39.59,0,0,1,6.32-10.66,4.25,4.25,0,0,1,2.81-1.53,4.19,4.19,0,0,1,3.07.9h0A4.21,4.21,0,0,1,35.6,21l0,0a31.22,31.22,0,0,0-4.91,8.2A22.71,22.71,0,0,0,29,37.58c0,6.23,1.67,8.74,3.78,11.92a45.11,45.11,0,0,1,3,5.08Zm71.68,19.47a4.2,4.2,0,0,1-2.85,1.34,4.2,4.2,0,0,1-3.36-7l0,0a57.44,57.44,0,0,0,10-15.33,37.71,37.71,0,0,0,3.2-15.51,37.23,37.23,0,0,0-3.7-15.33,58.31,58.31,0,0,0-10.6-15.12h0a4.1,4.1,0,0,1-1.13-3,4.27,4.27,0,0,1,1.3-2.93h0l.09-.09A4.15,4.15,0,0,1,103.38,0a4.3,4.3,0,0,1,2.91,1.29h0l.08.09a66.08,66.08,0,0,1,12.14,17.53,45.84,45.84,0,0,1,4.35,18.49A45.48,45.48,0,0,1,119.14,56a65.66,65.66,0,0,1-11.38,17.65,1.36,1.36,0,0,1-.27.39ZM93.46,60a4.19,4.19,0,0,1-2.56,1.24,4.12,4.12,0,0,1-3.06-.89h0a4.18,4.18,0,0,1-.63-5.87l0,0a31.6,31.6,0,0,0,5-8.31,22.37,22.37,0,0,0,0-16.89,30.89,30.89,0,0,0-4.94-8.18v0h0l-.09-.11A4.21,4.21,0,0,1,86.37,18a4.14,4.14,0,0,1,1.51-2.79l.16-.12A4.21,4.21,0,0,1,91,14.25a4.12,4.12,0,0,1,2.79,1.51l.06.08a39.37,39.37,0,0,1,6.29,10.62,30.5,30.5,0,0,1,2.11,11.25A31.52,31.52,0,0,1,100,49a40.12,40.12,0,0,1-6.36,10.74,1,1,0,0,1-.21.21Z"/></svg>