<svg xmlns="http://www.w3.org/2000/svg" xmlns:xlink="http://www.w3.org/1999/xlink" width="500" zoomAndPan="magnify" viewBox="0 0 375 374.999991" height="500" preserveAspectRatio="xMidYMid meet" version="1.0"><defs><g/></defs><path stroke-linecap="butt" transform="matrix(0.751576, 0, 0, 0.75, 91.066859, 208.021597)" fill="none" stroke-linejoin="miter" d="M -0.000601762 6.002455 L 148.6921 6.002455 " stroke="#000000" stroke-width="12" stroke-opacity="1" stroke-miterlimit="4"/><g fill="#000000" fill-opacity="1"><g transform="translate(91.066859, 195.564269)"><g><path d="M 27.140625 -18.375 L 35.953125 -18.375 L 35.953125 -3.78125 C 33.929688 -2.332031 31.613281 -1.222656 29 -0.453125 C 26.382812 0.316406 23.765625 0.703125 21.140625 0.703125 C 17.453125 0.703125 14.128906 -0.078125 11.171875 -1.640625 C 8.222656 -3.203125 5.910156 -5.375 4.234375 -8.15625 C 2.554688 -10.9375 1.71875 -14.09375 1.71875 -17.625 C 1.71875 -21.144531 2.554688 -24.296875 4.234375 -27.078125 C 5.910156 -29.867188 8.238281 -32.046875 11.21875 -33.609375 C 14.207031 -35.171875 17.582031 -35.953125 21.34375 -35.953125 C 24.632812 -35.953125 27.585938 -35.394531 30.203125 -34.28125 C 32.828125 -33.175781 35.007812 -31.582031 36.75 -29.5 L 30.40625 -23.765625 C 28.019531 -26.378906 25.164062 -27.6875 21.84375 -27.6875 C 18.820312 -27.6875 16.390625 -26.769531 14.546875 -24.9375 C 12.703125 -23.113281 11.78125 -20.675781 11.78125 -17.625 C 11.78125 -15.675781 12.195312 -13.9375 13.03125 -12.40625 C 13.875 -10.882812 15.050781 -9.691406 16.5625 -8.828125 C 18.070312 -7.972656 19.800781 -7.546875 21.75 -7.546875 C 23.664062 -7.546875 25.460938 -7.929688 27.140625 -8.703125 Z M 27.140625 -18.375 "/></g></g></g><g fill="#000000" fill-opacity="1"><g transform="translate(134.20947, 195.564269)"><g><path d="M 15.90625 0.703125 C 13.050781 0.703125 10.28125 0.351562 7.59375 -0.34375 C 4.914062 -1.050781 2.738281 -1.992188 1.0625 -3.171875 L 4.328125 -10.515625 C 5.910156 -9.484375 7.738281 -8.644531 9.8125 -8 C 11.894531 -7.363281 13.941406 -7.046875 15.953125 -7.046875 C 19.785156 -7.046875 21.703125 -8.003906 21.703125 -9.921875 C 21.703125 -10.921875 21.15625 -11.664062 20.0625 -12.15625 C 18.96875 -12.644531 17.210938 -13.15625 14.796875 -13.6875 C 12.148438 -14.257812 9.9375 -14.875 8.15625 -15.53125 C 6.375 -16.1875 4.84375 -17.234375 3.5625 -18.671875 C 2.289062 -20.117188 1.65625 -22.066406 1.65625 -24.515625 C 1.65625 -26.660156 2.242188 -28.597656 3.421875 -30.328125 C 4.597656 -32.054688 6.351562 -33.425781 8.6875 -34.4375 C 11.019531 -35.445312 13.878906 -35.953125 17.265625 -35.953125 C 19.578125 -35.953125 21.859375 -35.691406 24.109375 -35.171875 C 26.359375 -34.648438 28.34375 -33.882812 30.0625 -32.875 L 26.984375 -25.46875 C 23.628906 -27.28125 20.375 -28.1875 17.21875 -28.1875 C 15.238281 -28.1875 13.796875 -27.894531 12.890625 -27.3125 C 11.984375 -26.726562 11.53125 -25.960938 11.53125 -25.015625 C 11.53125 -24.078125 12.066406 -23.375 13.140625 -22.90625 C 14.210938 -22.4375 15.941406 -21.953125 18.328125 -21.453125 C 21.015625 -20.878906 23.238281 -20.265625 25 -19.609375 C 26.757812 -18.953125 28.285156 -17.910156 29.578125 -16.484375 C 30.867188 -15.054688 31.515625 -13.117188 31.515625 -10.671875 C 31.515625 -8.554688 30.925781 -6.640625 29.75 -4.921875 C 28.570312 -3.210938 26.804688 -1.847656 24.453125 -0.828125 C 22.109375 0.191406 19.257812 0.703125 15.90625 0.703125 Z M 15.90625 0.703125 "/></g></g></g><g fill="#000000" fill-opacity="1"><g transform="translate(171.160168, 195.564269)"><g><path d="M 35.34375 0 L 35.234375 -18.671875 L 26.171875 -3.46875 L 21.75 -3.46875 L 12.734375 -18.171875 L 12.734375 0 L 3.53125 0 L 3.53125 -35.234375 L 11.734375 -35.234375 L 24.109375 -14.90625 L 36.203125 -35.234375 L 44.40625 -35.234375 L 44.5 0 Z M 35.34375 0 "/></g></g></g><g fill="#000000" fill-opacity="1"><g transform="translate(223.565477, 195.564269)"><g><path d="M 27.140625 -6.84375 L 12.234375 -6.84375 L 9.46875 0 L -0.703125 0 L 14.84375 -35.234375 L 24.671875 -35.234375 L 40.28125 0 L 29.90625 0 Z M 24.21875 -14.203125 L 19.6875 -25.46875 L 15.15625 -14.203125 Z M 24.21875 -14.203125 "/></g></g></g><g fill="#000000" fill-opacity="1"><g transform="translate(208.34378, 215.328037)"><g><path d="M 6.1875 -4.015625 C 6.695312 -3.910156 7.085938 -3.691406 7.359375 -3.359375 C 7.640625 -3.023438 7.78125 -2.597656 7.78125 -2.078125 C 7.78125 -1.410156 7.535156 -0.894531 7.046875 -0.53125 C 6.554688 -0.175781 5.828125 0 4.859375 0 L 1.265625 0 L 1.265625 -7.796875 L 4.640625 -7.796875 C 5.503906 -7.796875 6.175781 -7.617188 6.65625 -7.265625 C 7.132812 -6.921875 7.375 -6.429688 7.375 -5.796875 C 7.375 -5.359375 7.265625 -4.988281 7.046875 -4.6875 C 6.835938 -4.394531 6.550781 -4.171875 6.1875 -4.015625 Z M 2.09375 -7.125 L 2.09375 -4.296875 L 4.578125 -4.296875 C 5.210938 -4.296875 5.695312 -4.414062 6.03125 -4.65625 C 6.375 -4.894531 6.546875 -5.242188 6.546875 -5.703125 C 6.546875 -6.160156 6.375 -6.507812 6.03125 -6.75 C 5.695312 -7 5.210938 -7.125 4.578125 -7.125 Z M 4.84375 -0.671875 C 5.539062 -0.671875 6.066406 -0.789062 6.421875 -1.03125 C 6.785156 -1.269531 6.96875 -1.644531 6.96875 -2.15625 C 6.96875 -3.125 6.257812 -3.609375 4.84375 -3.609375 L 2.09375 -3.609375 L 2.09375 -0.671875 Z M 4.84375 -0.671875 "/></g></g></g><g fill="#000000" fill-opacity="1"><g transform="translate(219.506169, 215.328037)"><g><path d="M 6.15625 -2.078125 L 1.8125 -2.078125 L 0.875 0 L 0.015625 0 L 3.59375 -7.796875 L 4.40625 -7.796875 L 7.96875 0 L 7.09375 0 Z M 5.859375 -2.75 L 3.984375 -6.9375 L 2.109375 -2.75 Z M 5.859375 -2.75 "/></g></g></g><g fill="#000000" fill-opacity="1"><g transform="translate(230.256435, 215.328037)"><g><path d="M 6.59375 0 L 4.8125 -2.5 C 4.613281 -2.476562 4.40625 -2.46875 4.1875 -2.46875 L 2.09375 -2.46875 L 2.09375 0 L 1.265625 0 L 1.265625 -7.796875 L 4.1875 -7.796875 C 5.1875 -7.796875 5.96875 -7.554688 6.53125 -7.078125 C 7.09375 -6.609375 7.375 -5.957031 7.375 -5.125 C 7.375 -4.519531 7.21875 -4.003906 6.90625 -3.578125 C 6.601562 -3.160156 6.164062 -2.859375 5.59375 -2.671875 L 7.5 0 Z M 4.171875 -3.171875 C 4.941406 -3.171875 5.53125 -3.34375 5.9375 -3.6875 C 6.34375 -4.03125 6.546875 -4.507812 6.546875 -5.125 C 6.546875 -5.757812 6.34375 -6.242188 5.9375 -6.578125 C 5.53125 -6.910156 4.941406 -7.078125 4.171875 -7.078125 L 2.09375 -7.078125 L 2.09375 -3.171875 Z M 4.171875 -3.171875 "/></g></g></g><g fill="#000000" fill-opacity="1"><g transform="translate(241.073526, 215.328037)"><g><path d="M 4.65625 0.0625 C 3.882812 0.0625 3.1875 -0.101562 2.5625 -0.4375 C 1.945312 -0.78125 1.460938 -1.253906 1.109375 -1.859375 C 0.753906 -2.472656 0.578125 -3.15625 0.578125 -3.90625 C 0.578125 -4.65625 0.753906 -5.332031 1.109375 -5.9375 C 1.460938 -6.539062 1.953125 -7.007812 2.578125 -7.34375 C 3.203125 -7.6875 3.898438 -7.859375 4.671875 -7.859375 C 5.242188 -7.859375 5.773438 -7.757812 6.265625 -7.5625 C 6.753906 -7.375 7.171875 -7.097656 7.515625 -6.734375 L 7 -6.203125 C 6.382812 -6.816406 5.613281 -7.125 4.6875 -7.125 C 4.070312 -7.125 3.507812 -6.984375 3 -6.703125 C 2.5 -6.421875 2.101562 -6.035156 1.8125 -5.546875 C 1.53125 -5.054688 1.390625 -4.507812 1.390625 -3.90625 C 1.390625 -3.289062 1.53125 -2.738281 1.8125 -2.25 C 2.101562 -1.757812 2.5 -1.375 3 -1.09375 C 3.507812 -0.8125 4.070312 -0.671875 4.6875 -0.671875 C 5.625 -0.671875 6.394531 -0.984375 7 -1.609375 L 7.515625 -1.078125 C 7.171875 -0.710938 6.753906 -0.429688 6.265625 -0.234375 C 5.773438 -0.0351562 5.238281 0.0625 4.65625 0.0625 Z M 4.65625 0.0625 "/></g></g></g><g fill="#000000" fill-opacity="1"><g transform="translate(251.846071, 215.328037)"><g><path d="M 6.78125 -0.71875 L 6.78125 0 L 1.265625 0 L 1.265625 -7.796875 L 6.625 -7.796875 L 6.625 -7.078125 L 2.09375 -7.078125 L 2.09375 -4.3125 L 6.125 -4.3125 L 6.125 -3.609375 L 2.09375 -3.609375 L 2.09375 -0.71875 Z M 6.78125 -0.71875 "/></g></g></g><g fill="#000000" fill-opacity="1"><g transform="translate(262.061694, 215.328037)"><g><path d="M 1.265625 -7.796875 L 2.09375 -7.796875 L 2.09375 -0.71875 L 6.46875 -0.71875 L 6.46875 0 L 1.265625 0 Z M 1.265625 -7.796875 "/></g></g></g><g fill="#000000" fill-opacity="1"><g transform="translate(271.386254, 215.328037)"><g><path d="M 4.671875 0.0625 C 3.898438 0.0625 3.203125 -0.109375 2.578125 -0.453125 C 1.953125 -0.796875 1.460938 -1.269531 1.109375 -1.875 C 0.753906 -2.476562 0.578125 -3.15625 0.578125 -3.90625 C 0.578125 -4.65625 0.753906 -5.328125 1.109375 -5.921875 C 1.460938 -6.523438 1.953125 -7 2.578125 -7.34375 C 3.203125 -7.6875 3.898438 -7.859375 4.671875 -7.859375 C 5.453125 -7.859375 6.148438 -7.6875 6.765625 -7.34375 C 7.390625 -7.007812 7.878906 -6.539062 8.234375 -5.9375 C 8.585938 -5.332031 8.765625 -4.65625 8.765625 -3.90625 C 8.765625 -3.15625 8.585938 -2.472656 8.234375 -1.859375 C 7.878906 -1.253906 7.390625 -0.78125 6.765625 -0.4375 C 6.148438 -0.101562 5.453125 0.0625 4.671875 0.0625 Z M 4.671875 -0.671875 C 5.296875 -0.671875 5.851562 -0.804688 6.34375 -1.078125 C 6.84375 -1.359375 7.234375 -1.742188 7.515625 -2.234375 C 7.796875 -2.734375 7.9375 -3.289062 7.9375 -3.90625 C 7.9375 -4.507812 7.796875 -5.054688 7.515625 -5.546875 C 7.234375 -6.046875 6.84375 -6.429688 6.34375 -6.703125 C 5.851562 -6.984375 5.296875 -7.125 4.671875 -7.125 C 4.054688 -7.125 3.5 -6.984375 3 -6.703125 C 2.5 -6.429688 2.101562 -6.046875 1.8125 -5.546875 C 1.53125 -5.054688 1.390625 -4.507812 1.390625 -3.90625 C 1.390625 -3.289062 1.53125 -2.734375 1.8125 -2.234375 C 2.101562 -1.742188 2.5 -1.359375 3 -1.078125 C 3.5 -0.804688 4.054688 -0.671875 4.671875 -0.671875 Z M 4.671875 -0.671875 "/></g></g></g><g fill="#000000" fill-opacity="1"><g transform="translate(283.495399, 215.328037)"><g><path d="M 7.78125 -7.796875 L 7.78125 0 L 7.109375 0 L 2.09375 -6.328125 L 2.09375 0 L 1.265625 0 L 1.265625 -7.796875 L 1.953125 -7.796875 L 6.96875 -1.46875 L 6.96875 -7.796875 Z M 7.78125 -7.796875 "/></g></g></g><g fill="#000000" fill-opacity="1"><g transform="translate(295.314949, 215.328037)"><g><path d="M 6.15625 -2.078125 L 1.8125 -2.078125 L 0.875 0 L 0.015625 0 L 3.59375 -7.796875 L 4.40625 -7.796875 L 7.96875 0 L 7.09375 0 Z M 5.859375 -2.75 L 3.984375 -6.9375 L 2.109375 -2.75 Z M 5.859375 -2.75 "/></g></g></g></svg>