<?xml version="1.0" encoding="utf-8"?>
<!-- Generator: Adobe Illustrator 25.3.0, SVG Export Plug-In . SVG Version: 6.00 Build 0)  -->
<svg version="1.1" id="Layer_1" xmlns="http://www.w3.org/2000/svg" xmlns:xlink="http://www.w3.org/1999/xlink" x="0px" y="0px"
	 viewBox="0 0 466 391.9" style="enable-background:new 0 0 466 391.9;" xml:space="preserve">
<g>
	<path d="M147.7,391.9c-48.2,0-95.7-12.8-137.4-37c-8.1-4.7-12.1-14.2-9.7-23.1c2.3-9,10.5-15.3,19.9-15.3h11
		c22.6,0,44.7-4.6,65.1-13.5c-25.6-12.9-45.8-35.8-54.7-63.6c-1.8-5.4-0.9-11.2,2.3-15.8c-22.1-20.4-35-49.6-34.7-80.7
		c0.1-6.5,3.5-12.3,9.1-15.5c0.7-0.4,1.5-0.8,2.2-1.1C13.9,112,10.2,96.1,10.2,79.6c0-19.1,5.1-37.9,14.6-54.3c3-5.2,8.4-8.5,14.3-9
		c6.1-0.4,11.7,2,15.5,6.7c38.2,46.9,91.3,76.8,150.6,85.1c0-9,1-18.2,3.2-27.3C216.9,45,244,16,279.2,5.1
		C316.5-6.4,356.4,2,384.6,26.8c14.1-4,28.5-9.9,41.9-17.9c6.5-3.9,14.6-3.3,20.6,1.4c5.9,4.7,8.3,12.5,6,19.7
		c-1.3,4-2.8,8-4.6,11.9c5,0.2,9.8,2.4,13.3,6.5c5.3,6.2,5.7,15,1.2,21.8c-11.2,16.7-24.7,31.6-40.3,44.3l-1.2,3.7
		c0,31.8-6.2,65.2-17.9,96.4c-12.2,32.7-29.9,62.3-52.5,87.9c-24.3,27.6-53.3,49.3-86.1,64.5C229.3,383.6,189.9,391.9,147.7,391.9z
		 M43.7,342.5c67,31.1,147.7,29.5,210.2,0.5c29.4-13.6,55.5-33.1,77.4-58c20.5-23.2,36.5-50,47.6-79.7
		c10.6-28.3,16.2-58.4,16.2-87.1c0-10.3,4-18.6,10.9-24.2c6.3-5.1,12.3-10.7,17.8-16.6c-1.7,0.5-3.5,0.9-5.2,1.3L370.9,90l35.6-33.8
		c4.2-4,8-8.5,11.3-13.3c-8.9,3.8-18.2,6.9-27.6,9.3c-7.6,1.9-16.7-0.1-23-5.6c-21.4-18.9-51.6-25.2-80.1-16.3
		c-26.3,8.2-46.6,29.9-53,56.6c-2.4,10.2-3.1,20.5-2,30.3c0.5,4.8-1,9.5-4.2,13c-3,3.4-7.6,5.5-12.4,5.5
		C147.5,129.5,86.9,99,42.4,49.4c-3.8,9.6-5.8,19.8-5.8,30.3c0,22.1,8.6,42.7,24.3,58.1l33.7,33.1L48.7,160c-4-1-8-2.2-11.9-3.6
		c4.1,27,21.4,50.5,46.7,62.1l52.8,24.1l-58.1,1.1c-2,0-4.2,0-6.2-0.1c11.7,22.7,33.9,39.2,59.5,43.4l33,5.4l-27.7,18.6
		C109,329.6,77,340.4,43.7,342.5z M57.6,242C57.6,242,57.6,242,57.6,242C57.6,242,57.6,242,57.6,242z M451.2,67.7
		C451.2,67.7,451.2,67.7,451.2,67.7C451.2,67.7,451.2,67.7,451.2,67.7L451.2,67.7z M34.1,39.7C34.1,39.7,34.1,39.7,34.1,39.7
		C34.2,39.7,34.1,39.7,34.1,39.7z"/>
</g>
</svg>
